<?xml version="1.0" standalone="no"?>
<!DOCTYPE svg PUBLIC "-//W3C//DTD SVG 20010904//EN"
 "http://www.w3.org/TR/2001/REC-SVG-20010904/DTD/svg10.dtd">
<svg version="1.0" xmlns="http://www.w3.org/2000/svg"
 width="1984.000000pt" height="1984.000000pt" viewBox="0 0 1984.000000 1984.000000"
 preserveAspectRatio="xMidYMid meet">
<metadata>
Created by potrace 1.11, written by Peter Selinger 2001-2013
</metadata>
<g transform="translate(0.000000,1984.000000) scale(0.100000,-0.100000)"
fill="#000000" stroke="none">
<path d="M4084 19700 c-12 -4 -37 -11 -56 -14 -51 -8 -77 -20 -132 -59 -46
-33 -126 -136 -126 -162 0 -7 -22 -95 -49 -196 -87 -329 -142 -540 -146 -559
-2 -10 -13 -52 -24 -92 -11 -40 -34 -127 -52 -193 -17 -66 -35 -136 -40 -155
-5 -19 -12 -44 -14 -55 -9 -40 -127 -492 -150 -575 -13 -47 -33 -127 -45 -179
-22 -92 -22 -95 -5 -170 16 -69 80 -276 202 -656 24 -77 48 -156 53 -175 5
-19 16 -51 24 -70 8 -19 17 -60 21 -90 3 -30 8 -66 10 -80 2 -14 7 -54 10 -90
3 -36 7 -81 10 -100 3 -19 7 -57 10 -85 11 -110 15 -152 19 -185 3 -19 7 -62
11 -94 3 -33 8 -73 10 -90 2 -17 7 -58 10 -91 3 -33 8 -73 10 -90 2 -16 7 -55
9 -85 8 -80 25 -248 31 -300 11 -93 15 -126 20 -180 3 -30 8 -71 11 -90 2 -19
7 -57 9 -85 8 -76 15 -146 20 -190 3 -22 7 -62 10 -90 3 -27 7 -66 10 -85 5
-40 13 -110 20 -190 3 -30 8 -75 11 -100 3 -25 7 -65 9 -89 3 -40 11 -106 20
-171 2 -14 7 -56 10 -95 4 -38 8 -81 10 -95 1 -14 5 -52 9 -85 3 -33 8 -76 11
-95 2 -19 7 -62 10 -95 3 -33 8 -76 10 -95 10 -89 16 -139 20 -185 8 -79 16
-148 20 -175 2 -14 7 -56 10 -95 11 -112 23 -225 30 -285 11 -84 14 -119 21
-190 3 -41 8 -78 10 -82 3 -4 -4 -27 -14 -50 -11 -24 -34 -77 -52 -118 -18
-41 -48 -108 -66 -148 -19 -40 -34 -75 -34 -77 0 -3 -13 -33 -29 -67 -16 -35
-163 -364 -326 -733 -164 -368 -308 -695 -322 -725 -14 -30 -50 -111 -80 -180
-109 -248 -116 -261 -184 -324 -35 -32 -125 -116 -199 -186 -74 -70 -173 -163
-220 -206 -46 -44 -121 -113 -165 -155 -44 -42 -113 -107 -154 -145 -206 -193
-213 -203 -245 -349 -1 -5 -5 -20 -10 -32 -10 -31 31 -191 62 -238 51 -78 97
-113 289 -219 57 -32 103 -59 103 -62 0 -3 -39 -101 -87 -217 -88 -216 -136
-375 -127 -424 3 -16 10 -46 16 -68 5 -22 12 -49 14 -60 10 -52 71 -119 364
-395 199 -189 219 -207 390 -370 84 -80 164 -156 179 -170 32 -30 318 -300
370 -350 20 -19 106 -100 190 -180 84 -80 179 -170 211 -200 32 -30 117 -111
190 -180 157 -147 175 -166 176 -188 6 -89 16 -202 19 -222 2 -14 7 -70 10
-125 4 -55 8 -113 10 -130 2 -16 7 -66 10 -110 3 -44 8 -98 9 -120 2 -22 7
-78 11 -125 4 -47 9 -101 10 -120 2 -19 6 -75 10 -125 3 -49 8 -99 10 -111 1
-11 6 -65 10 -120 4 -54 18 -143 30 -196 36 -151 79 -196 320 -344 71 -43 137
-83 147 -89 24 -14 139 -85 296 -182 74 -46 136 -83 139 -83 3 0 17 -8 31 -19
22 -15 679 -419 832 -511 25 -15 95 -58 155 -95 61 -37 122 -75 137 -84 46
-27 691 -422 728 -446 37 -24 285 -176 335 -205 17 -10 69 -42 117 -71 82 -51
245 -151 573 -351 77 -48 284 -174 460 -282 322 -196 345 -212 472 -334 38
-37 134 -128 212 -202 79 -74 164 -155 190 -180 174 -165 212 -191 322 -218
69 -17 93 -19 124 -11 35 10 45 12 96 24 41 9 59 17 59 26 0 5 7 9 15 9 8 0
15 4 15 8 0 4 12 15 28 25 15 9 52 40 82 68 60 56 347 329 444 422 140 134
191 173 396 298 118 72 265 162 325 199 61 37 238 146 395 242 157 96 365 224
463 284 97 60 185 114 195 119 9 6 50 30 90 55 41 25 86 52 100 61 77 46 482
294 512 314 34 22 543 334 598 366 15 9 185 113 377 231 452 277 549 337 703
430 70 42 132 81 137 86 6 5 16 11 22 13 5 2 78 46 160 98 134 83 207 139 238
182 6 8 16 22 23 31 7 9 22 52 33 95 20 81 24 106 33 208 3 33 8 87 11 120 3
33 8 96 11 140 2 44 7 96 9 115 2 19 6 69 10 110 3 41 7 95 9 120 2 25 7 81
10 125 4 44 9 98 11 120 2 22 7 74 10 115 12 146 14 176 21 259 3 47 7 90 8
98 3 18 25 41 186 193 79 74 164 154 189 178 25 24 100 95 166 157 66 62 145
137 176 166 110 104 352 334 389 369 20 19 106 100 190 180 84 80 170 161 190
180 20 19 84 80 142 135 58 55 162 154 233 220 70 66 141 140 158 165 17 25
34 47 37 50 4 3 16 44 28 93 21 84 22 90 6 160 -18 86 -19 87 -84 252 -57 141
-72 178 -101 243 -10 23 -19 47 -19 52 0 5 46 34 103 66 147 81 230 140 263
185 16 22 34 46 40 53 6 6 21 53 32 103 l21 90 -20 85 c-21 89 -63 159 -134
223 -18 17 -90 84 -160 150 -70 66 -144 136 -164 155 -21 19 -72 67 -113 105
-135 126 -311 292 -395 372 l-83 78 -170 385 c-93 212 -176 399 -184 415 -8
17 -24 50 -34 75 -11 25 -162 365 -335 755 l-314 710 13 115 c7 63 15 138 18
165 3 28 12 113 21 190 8 77 18 163 20 190 3 28 8 66 10 85 2 19 7 59 10 88 3
28 7 76 10 105 3 28 8 68 10 87 6 44 14 122 20 180 8 85 17 165 20 180 1 8 6
47 9 85 7 69 13 123 21 200 3 22 7 60 10 85 21 198 36 341 40 370 2 19 7 60
10 90 3 30 8 71 10 90 3 19 7 61 10 93 2 32 7 73 9 90 3 18 8 59 11 92 3 33 8
78 10 100 3 22 7 60 9 85 3 25 8 65 10 90 3 25 10 88 16 140 5 52 12 120 16
150 7 62 11 101 19 180 3 30 8 74 11 98 3 24 7 62 9 85 2 23 6 58 9 77 5 36
12 98 21 205 3 33 8 76 11 95 2 19 7 58 9 85 6 60 15 139 21 180 5 28 60 213
106 350 11 33 22 67 23 75 2 8 36 114 75 235 38 121 72 229 74 240 2 11 9 40
16 65 7 25 14 57 17 72 5 30 -31 187 -116 508 -32 124 -76 288 -96 365 -20 77
-48 183 -61 235 -14 52 -46 174 -70 270 -104 401 -184 707 -195 740 -37 113
-137 198 -272 230 l-84 19 -96 -24 c-54 -13 -118 -35 -145 -49 -26 -14 -81
-40 -122 -59 -41 -19 -136 -64 -210 -99 -74 -36 -161 -77 -193 -92 -81 -37
-158 -96 -199 -153 -19 -26 -74 -120 -123 -208 -48 -88 -109 -198 -135 -245
-26 -47 -68 -123 -93 -170 -36 -66 -60 -96 -108 -135 -34 -27 -69 -57 -79 -65
-27 -23 -105 -89 -179 -150 -36 -30 -71 -59 -77 -65 -6 -5 -33 -28 -60 -50
-26 -22 -82 -68 -124 -103 -41 -35 -95 -80 -119 -100 -25 -20 -56 -47 -70 -59
-14 -12 -88 -74 -163 -137 -76 -63 -144 -120 -153 -128 -8 -7 -20 -18 -27 -23
-7 -6 -80 -66 -163 -135 -82 -69 -158 -132 -168 -140 -11 -8 -24 -20 -31 -25
-6 -6 -38 -33 -71 -60 -33 -28 -62 -52 -65 -55 -3 -3 -27 -24 -55 -45 -27 -22
-59 -49 -71 -60 -12 -11 -57 -49 -100 -85 -44 -35 -81 -67 -84 -70 -10 -10
-77 -66 -114 -95 -21 -16 -44 -35 -50 -41 -37 -35 -221 -184 -228 -184 -4 0
-86 20 -181 45 -656 173 -969 254 -1085 282 l-103 25 -92 -22 c-89 -22 -211
-79 -554 -261 -88 -47 -129 -58 -148 -40 -6 4 -73 41 -150 81 -77 40 -194 101
-260 135 -84 44 -148 70 -212 85 -112 27 -24 44 -728 -141 -148 -39 -278 -73
-287 -75 -10 -2 -26 -6 -35 -8 -10 -2 -94 -24 -188 -49 -241 -64 -227 -63
-266 -30 -19 15 -42 35 -53 43 -10 8 -26 22 -35 31 -9 8 -43 37 -76 65 -33 27
-65 54 -71 59 -6 6 -30 26 -54 45 -46 37 -238 198 -280 234 -20 17 -255 213
-349 291 -13 11 -45 38 -70 60 -26 22 -66 56 -90 75 -24 19 -48 40 -55 45 -6
6 -51 44 -101 85 -49 41 -92 77 -95 80 -3 3 -30 25 -60 50 -30 25 -57 47 -60
50 -5 6 -118 100 -135 113 -5 4 -23 19 -40 33 -16 14 -47 39 -69 57 -21 18
-43 37 -50 42 -6 6 -38 33 -71 60 -33 28 -62 52 -65 55 -6 6 -61 53 -121 102
-24 20 -54 44 -66 55 -11 10 -41 34 -64 53 -138 112 -142 117 -234 285 -187
344 -275 498 -307 541 -50 67 -124 117 -278 189 -69 32 -199 94 -290 137 -188
91 -246 115 -293 123 -17 4 -50 10 -72 15 -47 11 -44 11 -71 0z"/>
</g>
</svg>
