<?xml version="1.0" encoding="utf-8"?>
<!-- Generator: Adobe Illustrator 19.2.1, SVG Export Plug-In . SVG Version: 6.00 Build 0)  -->
<svg version="1.1" id="Layer_1" xmlns="http://www.w3.org/2000/svg" xmlns:xlink="http://www.w3.org/1999/xlink" x="0px" y="0px"
	 viewBox="0 0 74.7 34.3" style="enable-background:new 0 0 74.7 34.3;" xml:space="preserve">
<style type="text/css">
	.st0{fill:#F1F1F1;}
	.st1{fill:#FFFFFF;}
	.st2{fill:none;stroke:#E6E6E6;stroke-miterlimit:10;}
	.st3{fill:#FAFAFA;}
	.st4{fill:#5E5E5E;}
	.st5{fill:#EA562A;}
	.st6{clip-path:url(#SVGID_4_);}
	.st7{opacity:0.39;}
	.st8{opacity:0.37;fill:#2F373A;}
	.st9{fill:#2F373A;}
	.st10{fill:none;stroke:#E6E6E6;stroke-width:3;stroke-miterlimit:10;}
	.st11{fill:#617279;}
	.st12{clip-path:url(#SVGID_6_);}
	.st13{opacity:0.48;}
	.st14{fill:#5F9FD9;}
	.st15{opacity:0.76;}
	.st16{fill:none;stroke:#F88868;stroke-miterlimit:10;stroke-dasharray:2.0004,2.0004;}
	.st17{fill:#F88868;}
	.st18{clip-path:url(#SVGID_12_);}
	.st19{fill:none;stroke:#FF0000;stroke-miterlimit:10;}
	.st20{fill:#FF0000;}
	.st21{fill:#313131;}
	.st22{fill:none;stroke:#0000FF;stroke-miterlimit:10;}
	.st23{fill:#0000FF;}
</style>
<g>
	<path class="st5" d="M65.9,31.4H8.8c-1.9,0-3.4-1.6-3.4-3.4V6.3c0-1.9,1.6-3.4,3.4-3.4h57.2c1.9,0,3.4,1.6,3.4,3.4V28
		C69.4,29.9,67.8,31.4,65.9,31.4z"/>
	<g>
		<path class="st1" d="M23.6,9v13.5c0,1.2,0,2.5,0.1,3.3h-3l-0.2-1.6h0c-0.7,1.2-2,1.9-3.4,1.9c-2.6,0-4.7-2.2-4.7-5.7
			c0-3.7,2.3-5.9,5-5.9c1.3,0,2.4,0.5,2.9,1.2h0V9H23.6z M20.1,19.4c0-0.2,0-0.4,0-0.6c-0.2-0.9-1-1.7-2-1.7c-1.6,0-2.4,1.4-2.4,3.1
			c0,1.9,0.9,3,2.3,3c1,0,1.8-0.7,2-1.7c0.1-0.2,0.1-0.5,0.1-0.8L20.1,19.4L20.1,19.4z"/>
		<path class="st1" d="M36.8,22.2c0,1.4,0,2.6,0.1,3.5h-3l-0.2-1.6h-0.1c-0.4,0.7-1.5,1.8-3.4,1.8c-2.2,0-3.9-1.4-3.9-4.8v-6.4h3.4
			v5.9c0,1.6,0.5,2.6,1.7,2.6c1,0,1.5-0.7,1.7-1.2c0.1-0.2,0.1-0.5,0.1-0.8v-6.5h3.4L36.8,22.2L36.8,22.2z"/>
		<path class="st1" d="M50.4,9v13.5c0,1.2,0,2.5,0.1,3.3h-3l-0.2-1.6h0c-0.7,1.2-2,1.9-3.4,1.9c-2.6,0-4.7-2.2-4.7-5.7
			c0-3.7,2.3-5.9,5-5.9c1.3,0,2.4,0.5,2.9,1.2h0V9H50.4z M46.9,19.4c0-0.2,0-0.4,0-0.6c-0.2-0.9-1-1.7-2-1.7c-1.6,0-2.4,1.4-2.4,3.1
			c0,1.9,0.9,3,2.3,3c1,0,1.8-0.7,2-1.7c0.1-0.2,0.1-0.5,0.1-0.8L46.9,19.4L46.9,19.4z"/>
		<path class="st1" d="M59.5,25.7l-0.2-1.1h-0.1c-0.7,0.9-1.9,1.3-3.2,1.3c-2.2,0-3.6-1.6-3.6-3.4c0-2.9,2.6-4.2,6.5-4.2v-0.2
			c0-0.6-0.3-1.4-2-1.4c-1.1,0-2.3,0.4-3,0.8l-0.6-2.2c0.8-0.4,2.3-1,4.3-1c3.7,0,4.9,2.2,4.9,4.8V23c0,1.1,0,2.1,0.2,2.7L59.5,25.7
			L59.5,25.7z M59.1,20.5c-1.8,0-3.2,0.4-3.2,1.7c0,0.9,0.6,1.3,1.3,1.3c0.9,0,1.6-0.6,1.8-1.3c0-0.2,0.1-0.4,0.1-0.6L59.1,20.5
			L59.1,20.5z"/>
	</g>
</g>
</svg>
